<svg version="1.1" xmlns="http://www.w3.org/2000/svg" xmlns:xlink="http://www.w3.org/1999/xlink" width="38.53269" height="38.3546" viewBox="0,0,38.53269,38.3546"><g transform="translate(-220.73365,-156.75469)"><g data-paper-data="{&quot;isPaintingLayer&quot;:true}" fill-rule="nonzero" stroke-linejoin="miter" stroke-miterlimit="10" stroke-dasharray="" stroke-dashoffset="0" style="mix-blend-mode: normal"><path d="M236.50966,168.60851c0,0 -0.18881,-3.2544 -0.97382,-5.13843c-0.78501,-1.88403 -2.91684,-4.19914 -2.91684,-4.19914c0,0 2.24422,-1.85414 3.98224,-2.30754c1.73801,-0.4534 4.96627,-0.02686 4.96627,-0.02686c0,0 1.27848,3.7276 1.36108,6.20561c0.0826,2.47801 -0.97201,5.46635 -0.97201,5.46635z" fill="#458b1c" stroke="none" stroke-width="0" stroke-linecap="butt"/><path d="M244.99498,180c0,7.73199 -5.43108,14 -12.13066,14c-6.69958,0 -12.13066,-6.26801 -12.13066,-14c0,-7.73199 5.43108,-14 12.13066,-14c6.69958,0 12.13066,6.26801 12.13066,14z" fill="#ff9c00" stroke="none" stroke-width="0" stroke-linecap="butt"/><path d="M259.26635,180c0,7.73199 -5.43108,14 -12.13066,14c-6.69958,0 -12.13066,-6.26801 -12.13066,-14c0,-7.73199 5.43108,-14 12.13066,-14c6.69958,0 12.13066,6.26801 12.13066,14z" fill="#ff9c00" stroke="none" stroke-width="0" stroke-linecap="butt"/><path d="M252.07302,179.61094c0,8.5595 -5.40528,15.49835 -12.07302,15.49835c-6.66774,0 -12.07302,-6.93885 -12.07302,-15.49835c0,-8.5595 5.40528,-15.49835 12.07302,-15.49835c6.66774,0 12.07302,6.93885 12.07302,15.49835z" fill="#ffb134" stroke="none" stroke-width="0" stroke-linecap="butt"/><path d="M241.01284,178.52968c0,-2.13277 1.72896,-3.86173 3.86173,-3.86173c2.13277,0 3.86173,1.72896 3.86173,3.86173c0,2.13277 -1.72896,3.86173 -3.86173,3.86173c-2.13277,0 -3.86173,-1.72896 -3.86173,-3.86173z" fill="#000000" stroke="#ffffff" stroke-width="2" stroke-linecap="butt"/><path d="M252.29573,176.77888c0,-1.38071 1.11929,-2.5 2.5,-2.5c1.38071,0 2.5,1.11929 2.5,2.5c0,1.38071 -1.11929,2.5 -2.5,2.5c-1.38071,0 -2.5,-1.11929 -2.5,-2.5z" fill="#000000" stroke="#ffffff" stroke-width="1.5" stroke-linecap="butt"/><path d="M249.75776,184.5683c0.94175,0.23719 1.41246,0.48925 2.33365,0.23337c0.92119,-0.25589 1.26176,-0.24501 1.86692,-1.40019" fill="none" stroke="#000000" stroke-width="2" stroke-linecap="round"/></g></g></svg>